<svg xmlns="http://www.w3.org/2000/svg" viewBox="0 0 351 80" fill="#76b900">
  <path d="M150.8 40.2c0-13.1-8.6-23.8-24-23.8-15.8 0-25.4 11.2-25.4 24.4 0 14.4 10.5 24.2 26.4 24.2 9.8 0 17.1-3.7 21.7-9.6l-9.4-6.8c-3.1 3.4-7.1 5.4-12.1 5.4-6.8 0-12.1-3.5-13.4-10h36.1c.1-.9.1-2.1.1-3.8zm-36-5.4c1.2-5.8 5.4-9.4 11.8-9.4 6 0 10.4 3.8 11.1 9.4h-22.9zM66.2 17.5H54.4L35.5 52.6 16.4 17.5H0l27.3 46.8h16.4l22.5-46.8zM83.4 17.5h13.3v46.8H83.4V17.5zm6.6-5.9c4.6 0 8.4-3.7 8.4-8.3S94.6 0 90 0s-8.4 3.7-8.4 8.3 3.8 8.3 8.4 8.3zM177.4 17.5h13.3v46.8h-13.3V17.5zm6.7-5.9c4.6 0 8.4-3.7 8.4-8.3S188.7 0 184.1 0s-8.4 3.7-8.4 8.3 3.7 8.3 8.4 8.3zM243.2 16.4c-6.8 0-12.4 2.4-16.2 7.2V0h-13.3v64.3H227v-6c3.8 4.8 9.4 7.2 16.2 7.2 13.4 0 23.3-10.4 23.3-24.5s-9.9-24.6-23.3-24.6zm-2.6 38c-7.4 0-13.6-5.6-13.6-13.4s6.2-13.4 13.6-13.4 13.4 5.6 13.4 13.4-6 13.4-13.4 13.4zM301.7 16.4c-6.8 0-12.4 2.4-16.2 7.2v-6.1h-13.3v46.8h13.3V40.8c0-8.1 4.9-13 12.1-13 6.8 0 11.2 4.6 11.2 12.1v24.4h13.3V37.6c0-13-8.2-21.2-20.4-21.2zM351 17.5l-14 35.4-14-35.4H309l21.6 46.8h13.9l21.5-46.8H351z"/>
</svg>
